# 3ds Max Wavefront OBJ Exporter v0.97b - (c)2007 guruware
# File Created: 07.12.2014 15:54:40

mtllib ammo.mtl

#
# object Object027
#

v  1.3102 15.1409 -0.6969
v  1.0061 15.1319 -0.9259
v  -0.2514 15.3219 0.7368
v  0.0527 15.3308 0.9657
v  0.9638 5.5388 0.1381
v  -0.2937 5.7287 1.8008
v  -0.5977 5.7198 1.5718
v  0.6597 5.5298 -0.0909
v  2.6066 24.3557 -2.7804
v  2.3026 24.3468 -3.0094
v  1.0600 24.0670 -1.3482
v  1.3641 24.0760 -1.1192
v  3.5615 14.8004 -3.6755
v  2.3190 14.5206 -2.0143
v  2.0149 14.5117 -2.2432
v  3.2575 14.7914 -3.9044
v  -2.6800 15.4239 0.8997
v  -2.9841 15.4149 0.6708
v  -4.2416 15.6049 2.3334
v  -3.9375 15.6138 2.5624
v  -3.0264 5.8218 1.7347
v  -4.2839 6.0117 3.3974
v  -4.5880 6.0028 3.1685
v  -3.3305 5.8128 1.5058
v  -0.4622 15.0889 -2.0327
v  -0.7663 15.0799 -2.2616
v  -2.0238 15.2699 -0.5989
v  -1.7197 15.2788 -0.3700
v  -0.8086 5.4868 -1.1976
v  -2.0661 5.6767 0.4650
v  -2.3702 5.6678 0.2361
v  -1.1127 5.4778 -1.4266
v  3.2553 14.7978 -3.8986
v  1.7857 14.7546 -5.0051
v  -3.9344 15.6186 2.5582
v  -2.4649 15.6618 3.6647
v  2.9085 5.1842 -3.0626
v  -2.8117 6.0483 4.5007
v  -4.2812 6.0051 3.3942
v  1.4389 5.1410 -4.1691
v  0.8351 24.3037 -4.1155
v  0.5310 24.2948 -4.3445
v  -0.7116 24.0150 -2.6833
v  -0.4075 24.0240 -2.4543
v  1.7900 14.7484 -5.0105
v  0.5474 14.4686 -3.3494
v  0.2433 14.4597 -3.5783
v  1.4859 14.7395 -5.2395
v  -1.3860 23.8037 -1.1462
v  -1.6900 23.7947 -1.3751
v  -2.9326 23.5149 0.2861
v  -2.6285 23.5239 0.5150
v  -0.4311 14.2483 -2.0412
v  -1.6737 13.9685 -0.3800
v  -1.9777 13.9596 -0.6089
v  -0.7352 14.2394 -2.2701
v  -3.5775 23.3102 1.7836
v  -3.8815 23.3013 1.5547
v  -5.1241 23.0215 3.2159
v  -4.8200 23.0304 3.4448
v  -2.6226 13.7549 0.8886
v  -3.8651 13.4751 2.5498
v  -4.1692 13.4662 2.3208
v  -2.9266 13.7459 0.6597
v  2.3047 24.3470 -3.0090
v  -4.8172 23.0311 3.4411
v  -3.3476 23.0743 4.5476
v  3.2607 14.7802 -3.9051
v  -2.3916 13.5075 3.6515
v  -3.8612 13.4643 2.5450
v  1.7911 14.7370 -5.0116
v  -0.9079 15.4760 2.2340
v  -1.2120 15.4670 2.0051
v  -2.4695 15.6570 3.6677
v  -2.1654 15.6659 3.8967
v  -1.2543 5.8739 3.0690
v  -2.5118 6.0638 4.7317
v  -2.8159 6.0549 4.5028
v  -1.5584 5.8649 2.8401
v  3.5652 14.7719 -3.6793
v  3.2611 14.7630 -3.9082
v  2.0036 14.9529 -2.2456
v  2.3077 14.9619 -2.0166
v  3.2188 5.1698 -2.8443
v  1.9613 5.3598 -1.1816
v  1.6573 5.3508 -1.4105
v  2.9147 5.1609 -3.0732
v  0.3872 23.8557 0.1902
v  0.0832 23.8467 -0.0388
v  -1.1594 23.5670 1.6224
v  -0.8553 23.5759 1.8514
v  1.3421 14.3003 -0.7049
v  0.0996 14.0206 0.9563
v  -0.2045 14.0116 0.7274
v  1.0381 14.2914 -0.9338
v  -1.8067 23.3622 3.1181
v  -2.1108 23.3532 2.8891
v  -3.3534 23.0735 4.5503
v  -3.0493 23.0824 4.7793
v  -0.8518 13.8068 2.2230
v  -2.0944 13.5271 3.8842
v  -2.3985 13.5181 3.6553
v  -1.1559 13.7979 1.9941
# 103 vertices

vn 0.0359 0.9956 -0.0866
vn -0.0359 -0.9956 0.0866
vn -0.7986 -0.0235 -0.6013
vn 0.6007 -0.0907 -0.7943
vn 0.7986 0.0235 0.6013
vn -0.6007 0.0907 0.7943
vn -0.0990 0.9907 0.0928
vn 0.0990 -0.9907 -0.0928
vn 0.5936 0.1337 -0.7936
vn -0.5936 -0.1337 0.7936
# 10 vertex normals

vt 0.0000 1.0000 0.0000
vt 0.0000 0.0000 0.0000
vt 1.0000 0.0000 0.0000
vt 1.0000 1.0000 0.0000
# 4 texture coords

g Object027
usemtl AMMO
s 2
f 1/1/1 2/2/1 3/3/1 
f 3/3/1 4/4/1 1/1/1 
s 4
f 5/4/2 6/1/2 7/2/2 
f 7/2/2 8/3/2 5/4/2 
s 8
f 8/4/3 7/1/3 3/2/3 
f 3/2/3 2/3/3 8/4/3 
s 16
f 5/4/4 8/1/4 2/2/4 
f 2/2/4 1/3/4 5/4/4 
s 32
f 6/4/5 5/1/5 1/2/5 
f 1/2/5 4/3/5 6/4/5 
s 64
f 7/4/6 6/1/6 4/2/6 
f 4/2/6 3/3/6 7/4/6 
s 2
f 9/1/7 10/2/7 11/3/7 
f 11/3/7 12/4/7 9/1/7 
s 4
f 13/4/8 14/1/8 15/2/8 
f 15/2/8 16/3/8 13/4/8 
s 8
f 16/4/3 15/1/3 11/2/3 
f 11/2/3 10/3/3 16/4/3 
s 16
f 13/4/9 16/1/9 10/2/9 
f 10/2/9 9/3/9 13/4/9 
s 32
f 14/4/5 13/1/5 9/2/5 
f 9/2/5 12/3/5 14/4/5 
s 64
f 15/4/10 14/1/10 12/2/10 
f 12/2/10 11/3/10 15/4/10 
s 2
f 17/1/1 18/2/1 19/3/1 
f 19/3/1 20/4/1 17/1/1 
s 4
f 21/4/2 22/1/2 23/2/2 
f 23/2/2 24/3/2 21/4/2 
s 8
f 24/4/3 23/1/3 19/2/3 
f 19/2/3 18/3/3 24/4/3 
s 16
f 21/4/4 24/1/4 18/2/4 
f 18/2/4 17/3/4 21/4/4 
s 32
f 22/4/5 21/1/5 17/2/5 
f 17/2/5 20/3/5 22/4/5 
s 64
f 23/4/6 22/1/6 20/2/6 
f 20/2/6 19/3/6 23/4/6 
s 2
f 25/1/1 26/2/1 27/3/1 
f 27/3/1 28/4/1 25/1/1 
s 4
f 29/4/2 30/1/2 31/2/2 
f 31/2/2 32/3/2 29/4/2 
s 8
f 32/4/3 31/1/3 27/2/3 
f 27/2/3 26/3/3 32/4/3 
s 16
f 29/4/4 32/1/4 26/2/4 
f 26/2/4 25/3/4 29/4/4 
s 32
f 30/4/5 29/1/5 25/2/5 
f 25/2/5 28/3/5 30/4/5 
s 64
f 31/4/6 30/1/6 28/2/6 
f 28/2/6 27/3/6 31/4/6 
s 2
f 33/1/1 34/2/1 35/3/1 
f 35/3/1 36/4/1 33/1/1 
s 4
f 37/4/2 38/1/2 39/2/2 
f 39/2/2 40/3/2 37/4/2 
s 8
f 40/4/3 39/1/3 35/2/3 
f 35/2/3 34/3/3 40/4/3 
s 16
f 37/4/4 40/1/4 34/2/4 
f 34/2/4 33/3/4 37/4/4 
s 32
f 38/4/5 37/1/5 33/2/5 
f 33/2/5 36/3/5 38/4/5 
s 64
f 39/4/6 38/1/6 36/2/6 
f 36/2/6 35/3/6 39/4/6 
s 2
f 41/1/7 42/2/7 43/3/7 
f 43/3/7 44/4/7 41/1/7 
s 4
f 45/4/8 46/1/8 47/2/8 
f 47/2/8 48/3/8 45/4/8 
s 8
f 48/4/3 47/1/3 43/2/3 
f 43/2/3 42/3/3 48/4/3 
s 16
f 45/4/9 48/1/9 42/2/9 
f 42/2/9 41/3/9 45/4/9 
s 32
f 46/4/5 45/1/5 41/2/5 
f 41/2/5 44/3/5 46/4/5 
s 64
f 47/4/10 46/1/10 44/2/10 
f 44/2/10 43/3/10 47/4/10 
s 2
f 49/1/7 50/2/7 51/3/7 
f 51/3/7 52/4/7 49/1/7 
s 4
f 53/4/8 54/1/8 55/2/8 
f 55/2/8 56/3/8 53/4/8 
s 8
f 56/4/3 55/1/3 51/2/3 
f 51/2/3 50/3/3 56/4/3 
s 16
f 53/4/9 56/1/9 50/2/9 
f 50/2/9 49/3/9 53/4/9 
s 32
f 54/4/5 53/1/5 49/2/5 
f 49/2/5 52/3/5 54/4/5 
s 64
f 55/4/10 54/1/10 52/2/10 
f 52/2/10 51/3/10 55/4/10 
s 2
f 57/1/7 58/2/7 59/3/7 
f 59/3/7 60/4/7 57/1/7 
s 4
f 61/4/8 62/1/8 63/2/8 
f 63/2/8 64/3/8 61/4/8 
s 8
f 64/4/3 63/1/3 59/2/3 
f 59/2/3 58/3/3 64/4/3 
s 16
f 61/4/9 64/1/9 58/2/9 
f 58/2/9 57/3/9 61/4/9 
s 32
f 62/4/5 61/1/5 57/2/5 
f 57/2/5 60/3/5 62/4/5 
s 64
f 63/4/10 62/1/10 60/2/10 
f 60/2/10 59/3/10 63/4/10 
s 2
f 65/1/7 41/2/7 66/3/7 
f 66/3/7 67/4/7 65/1/7 
s 4
f 68/4/8 69/1/8 70/2/8 
f 70/2/8 71/3/8 68/4/8 
s 8
f 71/4/3 70/1/3 66/2/3 
f 66/2/3 41/3/3 71/4/3 
s 16
f 68/4/9 71/1/9 41/2/9 
f 41/2/9 65/3/9 68/4/9 
s 32
f 69/4/5 68/1/5 65/2/5 
f 65/2/5 67/3/5 69/4/5 
s 64
f 70/4/10 69/1/10 67/2/10 
f 67/2/10 66/3/10 70/4/10 
s 2
f 72/1/1 73/2/1 74/3/1 
f 74/3/1 75/4/1 72/1/1 
s 4
f 76/4/2 77/1/2 78/2/2 
f 78/2/2 79/3/2 76/4/2 
s 8
f 79/4/3 78/1/3 74/2/3 
f 74/2/3 73/3/3 79/4/3 
s 16
f 76/4/4 79/1/4 73/2/4 
f 73/2/4 72/3/4 76/4/4 
s 32
f 77/4/5 76/1/5 72/2/5 
f 72/2/5 75/3/5 77/4/5 
s 64
f 78/4/6 77/1/6 75/2/6 
f 75/2/6 74/3/6 78/4/6 
s 2
f 80/1/1 81/2/1 82/3/1 
f 82/3/1 83/4/1 80/1/1 
s 4
f 84/4/2 85/1/2 86/2/2 
f 86/2/2 87/3/2 84/4/2 
s 8
f 87/4/3 86/1/3 82/2/3 
f 82/2/3 81/3/3 87/4/3 
s 16
f 84/4/4 87/1/4 81/2/4 
f 81/2/4 80/3/4 84/4/4 
s 32
f 85/4/5 84/1/5 80/2/5 
f 80/2/5 83/3/5 85/4/5 
s 64
f 86/4/6 85/1/6 83/2/6 
f 83/2/6 82/3/6 86/4/6 
s 2
f 88/1/7 89/2/7 90/3/7 
f 90/3/7 91/4/7 88/1/7 
s 4
f 92/4/8 93/1/8 94/2/8 
f 94/2/8 95/3/8 92/4/8 
s 8
f 95/4/3 94/1/3 90/2/3 
f 90/2/3 89/3/3 95/4/3 
s 16
f 92/4/9 95/1/9 89/2/9 
f 89/2/9 88/3/9 92/4/9 
s 32
f 93/4/5 92/1/5 88/2/5 
f 88/2/5 91/3/5 93/4/5 
s 64
f 94/4/10 93/1/10 91/2/10 
f 91/2/10 90/3/10 94/4/10 
s 2
f 96/1/7 97/2/7 98/3/7 
f 98/3/7 99/4/7 96/1/7 
s 4
f 100/4/8 101/1/8 102/2/8 
f 102/2/8 103/3/8 100/4/8 
s 8
f 103/4/3 102/1/3 98/2/3 
f 98/2/3 97/3/3 103/4/3 
s 16
f 100/4/9 103/1/9 97/2/9 
f 97/2/9 96/3/9 100/4/9 
s 32
f 101/4/5 100/1/5 96/2/5 
f 96/2/5 99/3/5 101/4/5 
s 64
f 102/4/10 101/1/10 99/2/10 
f 99/2/10 98/3/10 102/4/10 
# 156 faces

