# 3ds Max Wavefront OBJ Exporter v0.97b - (c)2007 guruware
# File Created: 07.12.2014 21:27:06

mtllib Menu.mtl

#
# object Box001
#

v  -23.9504 23.9171 0.0000
v  -23.9504 8.0037 -0.0000
v  24.0346 23.9171 0.0000
v  24.0346 8.0037 -0.0000
v  24.0346 8.0037 -7.5895
v  -23.9504 8.0037 -7.5895
v  24.0346 23.9171 -7.5894
v  -23.9504 23.9171 -7.5894
# 8 vertices

vn 0.0000 -0.0000 1.0000
vn 0.0000 0.0000 -1.0000
vn 0.0000 -1.0000 -0.0000
vn 1.0000 0.0000 -0.0000
vn 0.0000 1.0000 0.0000
vn -1.0000 0.0000 -0.0000
# 6 vertex normals

vt 0.0000 1.0000 0.0000
vt 0.0000 0.0000 0.0000
vt 1.0000 1.0000 0.0000
vt 1.0000 0.0000 0.0000
# 4 texture coords

g Box001
usemtl QUIT
s 2
f 1/1/1 2/2/1 3/3/1 
f 4/4/1 3/3/1 2/2/1 
s 4
f 5/2/2 6/4/2 7/1/2 
f 8/3/2 7/1/2 6/4/2 
s 8
f 4/4/3 2/2/3 5/3/3 
f 6/1/3 5/3/3 2/2/3 
s 16
f 3/4/4 4/2/4 7/3/4 
f 5/1/4 7/3/4 4/2/4 
s 32
f 1/4/5 3/2/5 8/3/5 
f 7/1/5 8/3/5 3/2/5 
s 64
f 2/4/6 1/2/6 6/3/6 
f 8/1/6 6/3/6 1/2/6 
# 12 faces

#
# object Box002
#

v  -23.9504 47.9095 0.0000
v  -23.9504 31.9961 0.0000
v  24.0346 47.9095 0.0000
v  24.0346 31.9961 0.0000
v  24.0346 31.9961 -7.8343
v  -23.9504 31.9961 -7.8343
v  24.0346 47.9095 -7.8343
v  -23.9504 47.9095 -7.8343
# 8 vertices

vn 0.0000 -0.0000 1.0000
vn 0.0000 0.0000 -1.0000
vn 0.0000 -1.0000 -0.0000
vn 1.0000 0.0000 -0.0000
vn 0.0000 1.0000 0.0000
vn -1.0000 0.0000 -0.0000
# 6 vertex normals

vt 0.0000 1.0000 0.0000
vt 0.0000 0.0000 0.0000
vt 1.0000 1.0000 0.0000
vt 1.0000 0.0000 0.0000
# 4 texture coords

g Box002
usemtl LEADERBOARDS
s 2
f 9/5/7 10/6/7 11/7/7 
f 12/8/7 11/7/7 10/6/7 
s 4
f 13/6/8 14/8/8 15/5/8 
f 16/7/8 15/5/8 14/8/8 
s 8
f 12/8/9 10/6/9 13/7/9 
f 14/5/9 13/7/9 10/6/9 
s 16
f 11/8/10 12/6/10 15/7/10 
f 13/5/10 15/7/10 12/6/10 
s 32
f 9/8/11 11/6/11 16/7/11 
f 15/5/11 16/7/11 11/6/11 
s 64
f 10/8/12 9/6/12 14/7/12 
f 16/5/12 14/7/12 9/6/12 
# 12 faces

#
# object Box003
#

v  -23.9504 71.9020 0.0000
v  -23.9504 55.9886 0.0000
v  24.0346 71.9020 0.0000
v  24.0346 55.9886 0.0000
v  24.0346 55.9886 -7.5894
v  -23.9504 55.9886 -7.5894
v  24.0346 71.9020 -7.5894
v  -23.9504 71.9020 -7.5894
# 8 vertices

vn 0.0000 -0.0000 1.0000
vn 0.0000 0.0000 -1.0000
vn 0.0000 -1.0000 -0.0000
vn 1.0000 0.0000 -0.0000
vn 0.0000 1.0000 0.0000
vn -1.0000 0.0000 -0.0000
# 6 vertex normals

vt 0.0000 1.0000 0.0000
vt 0.0000 0.0000 0.0000
vt 1.0000 1.0000 0.0000
vt 1.0000 0.0000 0.0000
# 4 texture coords

g Box003
usemtl PLAY
s 2
f 17/9/13 18/10/13 19/11/13 
f 20/12/13 19/11/13 18/10/13 
s 4
f 21/10/14 22/12/14 23/9/14 
f 24/11/14 23/9/14 22/12/14 
s 8
f 20/12/15 18/10/15 21/11/15 
f 22/9/15 21/11/15 18/10/15 
s 16
f 19/12/16 20/10/16 23/11/16 
f 21/9/16 23/11/16 20/10/16 
s 32
f 17/12/17 19/10/17 24/11/17 
f 23/9/17 24/11/17 19/10/17 
s 64
f 18/12/18 17/10/18 22/11/18 
f 24/9/18 22/11/18 17/10/18 
# 12 faces

