# 3ds Max Wavefront OBJ Exporter v0.97b - (c)2007 guruware
# File Created: 07.12.2014 17:37:31

mtllib win.mtl

#
# object Triforce
#

v  5.9696 18.4486 -2.2162
v  0.0574 28.7521 -2.2521
v  0.0574 28.7621 1.9046
v  5.9696 18.4585 1.9406
v  -5.9097 18.4803 -2.2163
v  -5.9097 18.4901 1.9405
v  6.0068 18.5874 1.9401
v  11.9191 8.2838 1.9761
v  11.9191 8.2739 -2.1807
v  6.0068 18.5775 -2.2166
v  0.0398 8.3056 -2.1808
v  0.0398 8.3155 1.9759
v  0.0344 8.2739 -2.1807
v  -5.8778 18.5775 -2.2166
v  -5.8778 18.5874 1.9401
v  0.0344 8.2838 1.9761
v  -11.8449 8.3056 -2.1808
v  -11.8449 8.3155 1.9759
# 18 vertices

vn 0.8650 -0.5018 0.0012
vn 0.0027 1.0000 -0.0024
vn 0.8644 -0.5028 0.0012
vn -0.8676 -0.4972 0.0012
vn -0.8671 -0.4982 0.0012
vn 0.0000 -0.0035 -1.0000
vn 0.0000 0.0035 1.0000
vn 0.8650 -0.5019 0.0012
# 8 vertex normals

vt 0.7500 0.0000 1.0000
vt 1.0833 0.0000 1.0000
vt 1.0833 1.0000 1.0000
vt 0.7500 1.0000 1.0000
vt 0.0833 0.0000 1.0000
vt 0.4167 0.0000 1.0000
vt 0.4167 1.0000 1.0000
vt 0.0833 1.0000 1.0000
vt 0.9330 0.2500 -0.2500
vt 0.0670 0.2500 -0.2500
vt 0.5000 1.0000 -0.2500
vt 0.5000 1.0000 0.2500
vt 0.0670 0.2500 0.2500
vt 0.9330 0.2500 0.2500
# 14 texture coords

g Triforce
usemtl GOLD
s 8
f 1/1/1 2/2/2 3/3/2 
f 3/3/2 4/4/3 1/1/1 
f 2/5/2 5/6/4 6/7/5 
f 6/7/5 3/8/2 2/5/2 
f 6/7/5 5/6/4 1/1/1 
f 1/1/1 4/4/3 6/7/5 
s 1
f 5/9/6 2/10/6 1/11/6 
f 4/12/7 3/13/7 6/14/7 
s 8
f 7/3/2 8/4/3 9/1/8 
f 9/1/8 10/2/2 7/3/2 
f 7/8/2 10/5/2 11/6/4 
f 11/6/4 12/7/5 7/8/2 
f 8/4/3 12/7/5 11/6/4 
f 11/6/4 9/1/8 8/4/3 
s 1
f 11/9/6 10/10/6 9/11/6 
f 8/12/7 7/13/7 12/14/7 
s 8
f 13/1/8 14/2/2 15/3/2 
f 15/3/2 16/4/3 13/1/8 
f 14/5/2 17/6/4 18/7/5 
f 18/7/5 15/8/2 14/5/2 
f 18/7/5 17/6/4 13/1/8 
f 13/1/8 16/4/3 18/7/5 
s 1
f 17/9/6 14/10/6 13/11/6 
f 16/12/7 15/13/7 18/14/7 
# 24 faces

